<?xml version="1.0" encoding="utf-8"?>
<!-- Generator: Adobe Illustrator 16.2.0, SVG Export Plug-In . SVG Version: 6.00 Build 0)  -->
<!DOCTYPE svg PUBLIC "-//W3C//DTD SVG 1.1//EN" "http://www.w3.org/Graphics/SVG/1.1/DTD/svg11.dtd">
<svg version="1.1" id="Layer_1" xmlns="http://www.w3.org/2000/svg" xmlns:xlink="http://www.w3.org/1999/xlink" x="0px" y="0px"
	 width="798.418px" height="249.713px" viewBox="0 0 798.418 249.713" enable-background="new 0 0 798.418 249.713"
	 xml:space="preserve">
<g>
	<path fill="#4263F7" d="M798.418,182.043h-26.043V7.757c3.898-3.077,9.186-5.244,15.859-6.5c3.9-0.823,6.891-1.256,8.883-1.256
		c0.52,0,0.953,0.043,1.301,0.13V182.043L798.418,182.043z M504.955,68.428c2.758,2.076,5.404,4.443,7.939,7.102
		c11.439,12.177,17.115,26.91,17.115,44.157c0,17.204-5.676,31.894-17.115,44.069c-11.527,12.178-25.352,18.287-41.514,18.287
		c-12.004,0-22.924-3.51-32.76-10.529v78.07c-0.348,0.086-0.781,0.129-1.258,0.129c-2.037,0-4.982-0.434-8.883-1.256
		c-6.717-1.258-12.004-3.424-15.904-6.5v-96.016l26.242-22.018c0.781,8.204,3.883,15.334,9.336,21.417
		c6.412,7.107,14.17,10.66,23.227,10.66c8.969,0,16.684-3.553,23.096-10.66c6.457-7.107,9.664-15.643,9.664-25.653
		c0-10.053-3.207-18.633-9.664-25.74c-3.174-3.518-6.666-6.164-10.471-7.94L504.955,68.428L504.955,68.428z M678.557,57.373
		c0.521-0.086,1.084-0.13,1.646-0.13c1.951,0,4.768,0.39,8.408,1.126c6.672,1.387,11.959,3.51,15.859,6.5v117.173h-25.914v-10.66
		c-9.879,7.107-20.799,10.66-32.76,10.66c-16.25,0-30.115-6.109-41.643-18.287c-11.396-12.176-17.117-26.865-17.117-44.069
		c0-17.247,5.721-31.98,17.117-44.157c11.527-12.09,25.393-18.157,41.643-18.157c11.961,0,22.881,3.51,32.76,10.53V57.373
		L678.557,57.373z M622.57,145.34c6.457,7.107,14.17,10.66,23.227,10.66c8.971,0,16.684-3.553,23.098-10.66
		c6.457-7.107,9.662-15.643,9.662-25.653c0-10.053-3.205-18.633-9.662-25.74c-6.414-7.107-14.127-10.66-23.098-10.66
		c-9.057,0-16.77,3.553-23.227,10.66c-6.326,7.106-9.533,15.687-9.533,25.74C613.037,129.697,616.244,138.232,622.57,145.34
		L622.57,145.34z"/>
	<path d="M106.513,62.313l21.58,78.087l29.813-83.027c9.189,0,18.35,0,27.56,0l-43.55,121.637l-0.39,0.996l-0.26,0.391l-0.13,0.391
		c-0.477,0.172-1.213,0.303-2.124,0.477c-1.95,0.346-4.29,0.605-6.977,0.779h-7.887c-2.73-0.174-5.07-0.434-7.106-0.779
		c-0.954-0.174-1.647-0.305-2.167-0.477l-0.13-0.391l-0.13-0.391l-0.39-0.996l-21.45-74.533L70.59,180.787
		c-0.52,0.172-1.256,0.303-2.167,0.477c-1.95,0.346-4.29,0.605-6.977,0.779H53.56c-2.73-0.174-5.07-0.434-7.106-0.779
		c-0.954-0.174-1.647-0.305-2.167-0.477c-0.203-0.611-0.415-1.176-0.65-1.777L0,57.373c9.204,0,18.343,0,27.517,0L57.503,140.4
		l21.45-78.087H106.513L106.513,62.313z M438.621,67.903c9.836-7.02,20.756-10.53,32.76-10.53c12.607,0,23.793,3.692,33.574,11.055
		l-20.949,17.579c-3.885-1.813-8.094-2.72-12.625-2.72c-9.057,0-16.814,3.553-23.227,10.66c-6.371,7.106-9.533,15.687-9.533,25.74
		c0,1.443,0.066,2.855,0.197,4.237l-26.242,22.018V7.757c3.9-3.077,9.188-5.244,15.904-6.5c3.9-0.823,6.846-1.256,8.883-1.256
		c0.477,0,0.91,0.043,1.258,0.13V67.903L438.621,67.903z M349.483,119.687c0,3.423-0.26,6.89-0.78,10.442H259.35
		c2.037,7.541,5.85,13.65,11.526,18.418c5.764,4.811,12.394,7.279,19.804,7.453c1.776,0.174,3.467,0.26,5.113,0.26
		c3.77,0,7.15-0.434,10.01-1.256c2.297-0.693,4.897-1.734,7.887-3.164c8.97,3.293,15.73,9.23,20.28,17.768l-1.387,0.996l-0.39,0.26
		l-4.03,2.557c-0.26,0.174-0.563,0.346-0.91,0.477c-0.737,0.52-1.733,1.084-2.903,1.689c-0.52,0.217-0.91,0.434-1.17,0.607
		c-11.016,5.49-20.361,5.85-32.5,5.85c-20.063,0-35.923-8.666-47.58-26.043c-5.33-7.758-8.753-16.381-10.313-25.871
		c-0.477-3.553-0.736-7.019-0.736-10.442c0-3.38,0.26-6.847,0.736-10.4c2.383-14.82,8.97-27.17,19.803-37.05
		c11.007-9.924,23.704-14.864,38.09-14.864c3.553,0,7.15,0.347,10.79,0.997c12.133,2.384,22.49,8.233,31.113,17.55
		c8.71,9.403,14.083,20.497,16.12,33.367C349.223,112.84,349.483,116.307,349.483,119.687L349.483,119.687z M322.184,109.287
		c-3.467-13.043-11.137-21.277-22.967-24.743c-2.73-0.867-5.547-1.257-8.537-1.257c-7.28,0-13.824,2.427-19.673,7.366
		c-5.764,4.811-9.62,11.007-11.657,18.634H322.184L322.184,109.287z"/>
</g>
</svg>
