<svg id="dbglass" xmlns="http://www.w3.org/2000/svg" viewBox="0 0 766.41 175.58"><defs><style>.cls-1{isolation:isolate;}.cls-2{fill:#262626;}.cls-3{fill:#fb5555;}</style></defs><title>Logo 2</title><g class="cls-1"><path class="cls-2" d="M256.49,139.46h-24.2v-11H232q-8.27,13-24.27,13-14.7,0-23.66-10.59t-9-29.58q0-19.85,9.88-31.8t25.88-12q15.16,0,21.13,11.1h0.31V21h24.2V139.46Zm-23.74-38.91v-6a19.18,19.18,0,0,0-4.44-13,15.5,15.5,0,0,0-24.12,1.29q-4.52,6.45-4.52,17.7,0,10.55,4.37,16.25a15.3,15.3,0,0,0,24.08-.31Q232.75,110.47,232.75,100.55Z" transform="translate(0 -1.46)"/><path class="cls-2" d="M308.26,130.16H308v9.3h-24.2V21H308V71.48h0.31q9-14,25.5-14,15.16,0,23.36,10.63t8.19,29.07q0,20-9.57,32.12t-25.58,12.11Q315.69,141.41,308.26,130.16ZM307.57,96.4v8.21a19,19,0,0,0,4.37,12.81,14.07,14.07,0,0,0,11.18,5.08A14.74,14.74,0,0,0,335.94,116q4.55-6.52,4.56-18.48,0-9.92-4.17-15.51T324.42,76.4a15.25,15.25,0,0,0-12.06,5.55Q307.57,87.5,307.57,96.4Z" transform="translate(0 -1.46)"/><path class="cls-2" d="M464.79,130.32q0,22.27-12.64,34.5T415.55,177q-15.85,0-25.12-4.61V151.65q12.1,7.19,24.43,7.19t19-6.6q6.74-6.6,6.74-17.93V128h-0.31q-8.27,13.44-24.43,13.44-15,0-23.82-10.78t-8.81-28.91q0-20.32,9.8-32.27t25.81-12q14.32,0,21.44,11.25h0.31v-9.3h24.2v70.87ZM440.9,101V94.69a19.7,19.7,0,0,0-4.4-12.93A14.13,14.13,0,0,0,425,76.4a14.71,14.71,0,0,0-12.63,6.41q-4.6,6.41-4.59,18.05,0,10,4.37,15.82a14.12,14.12,0,0,0,11.95,5.82,14.7,14.7,0,0,0,12.14-5.9Q440.9,110.71,440.9,101Z" transform="translate(0 -1.46)"/><path class="cls-2" d="M516.11,139.46h-24.2V21h24.2V139.46Z" transform="translate(0 -1.46)"/><path class="cls-2" d="M608.62,139.46h-22.9V128h-0.31q-7.89,13.44-23.36,13.44-11.41,0-18-6.6t-6.55-17.62q0-23.29,27-26.88l21.29-2.89q0-13.13-13.94-13.13a46.91,46.91,0,0,0-26.65,8.52V64.21a59.19,59.19,0,0,1,13.82-4.69,71.3,71.3,0,0,1,16-2q33.54,0,33.54,34.15v47.82ZM585.88,107v-5.39l-14.24,1.88Q559.84,105,559.84,114.3a9.06,9.06,0,0,0,2.87,6.92,10.9,10.9,0,0,0,7.77,2.7,14.19,14.19,0,0,0,11.1-4.81A17.57,17.57,0,0,0,585.88,107Z" transform="translate(0 -1.46)"/></g><g class="cls-1"><path class="cls-2" d="M634.24,137.35v-20a51,51,0,0,0,11.91,5.47,38.71,38.71,0,0,0,11.22,1.8q6.43,0,10.15-1.8t3.71-5.47a5.11,5.11,0,0,0-1.68-3.91,15.64,15.64,0,0,0-4.33-2.73,48.44,48.44,0,0,0-5.78-2.11q-3.14-.94-6-2.11a57.4,57.4,0,0,1-8.23-3.87,23.86,23.86,0,0,1-6-4.81,19,19,0,0,1-3.68-6.33A25.74,25.74,0,0,1,634.24,83a22.28,22.28,0,0,1,2.87-11.56,23.72,23.72,0,0,1,7.66-7.93,34.62,34.62,0,0,1,11-4.53,56,56,0,0,1,12.83-1.45,69.78,69.78,0,0,1,10.57.82,77.62,77.62,0,0,1,10.57,2.38V79.76a37.8,37.8,0,0,0-9.84-4.1,40.74,40.74,0,0,0-10.3-1.37,22.44,22.44,0,0,0-4.48.43A14.56,14.56,0,0,0,661.35,76a6.86,6.86,0,0,0-2.53,2.11,4.93,4.93,0,0,0-.92,2.93,5.47,5.47,0,0,0,1.38,3.75,12,12,0,0,0,3.6,2.7,35,35,0,0,0,4.94,2q2.72,0.9,5.4,1.84A69.46,69.46,0,0,1,682,95.08a28,28,0,0,1,6.7,4.77,18.74,18.74,0,0,1,4.29,6.41,23.18,23.18,0,0,1,1.49,8.75,23.2,23.2,0,0,1-3,12.15,24.47,24.47,0,0,1-8,8.2A36,36,0,0,1,671.81,140a62.87,62.87,0,0,1-13.59,1.45A68.83,68.83,0,0,1,634.24,137.35Z" transform="translate(0 -1.46)"/><path class="cls-2" d="M706.22,137.35v-20a51,51,0,0,0,11.91,5.47,38.71,38.71,0,0,0,11.22,1.8q6.43,0,10.15-1.8t3.71-5.47a5.11,5.11,0,0,0-1.68-3.91,15.64,15.64,0,0,0-4.33-2.73,48.44,48.44,0,0,0-5.78-2.11q-3.14-.94-6-2.11a57.4,57.4,0,0,1-8.23-3.87,23.86,23.86,0,0,1-6-4.81,19,19,0,0,1-3.68-6.33A25.74,25.74,0,0,1,706.22,83a22.28,22.28,0,0,1,2.87-11.56,23.72,23.72,0,0,1,7.66-7.93,34.62,34.62,0,0,1,11-4.53,56,56,0,0,1,12.83-1.45,69.78,69.78,0,0,1,10.57.82,77.62,77.62,0,0,1,10.57,2.38V79.76a37.8,37.8,0,0,0-9.84-4.1,40.74,40.74,0,0,0-10.3-1.37,22.44,22.44,0,0,0-4.48.43A14.56,14.56,0,0,0,733.33,76a6.86,6.86,0,0,0-2.53,2.11,4.93,4.93,0,0,0-.92,2.93,5.47,5.47,0,0,0,1.38,3.75,12,12,0,0,0,3.6,2.7,35,35,0,0,0,4.94,2q2.72,0.9,5.4,1.84a69.46,69.46,0,0,1,8.73,3.75,28,28,0,0,1,6.7,4.77,18.74,18.74,0,0,1,4.29,6.41,23.18,23.18,0,0,1,1.49,8.75,23.2,23.2,0,0,1-3,12.15,24.47,24.47,0,0,1-8,8.2A36,36,0,0,1,743.78,140a62.87,62.87,0,0,1-13.59,1.45A68.83,68.83,0,0,1,706.22,137.35Z" transform="translate(0 -1.46)"/></g><g id="Ellipse_1" data-name="Ellipse 1"><g id="Ellipse_1-2" data-name="Ellipse 1-2"><circle class="cls-3" cx="107.5" cy="20.5" r="20.5"/></g></g><g id="Rectangle_1_copy" data-name="Rectangle 1 copy"><g id="Rectangle_1_copy-2" data-name="Rectangle 1 copy-2"><rect class="cls-3" x="102" y="18" width="11" height="81"/></g></g><g id="Ellipse_1_copy" data-name="Ellipse 1 copy"><g id="Ellipse_1_copy-2" data-name="Ellipse 1 copy-2"><circle class="cls-2" cx="107.5" cy="117.5" r="20.5"/></g></g><g id="Ellipse_1_copy_2" data-name="Ellipse 1 copy 2"><g id="Ellipse_1_copy_2-2" data-name="Ellipse 1 copy 2-2"><circle class="cls-2" cx="20.5" cy="117.5" r="20.5"/></g></g><g id="Rectangle_1" data-name="Rectangle 1"><g id="Rectangle_1-2" data-name="Rectangle 1-2"><rect class="cls-2" x="23" y="110" width="81" height="11"/></g></g></svg>